<?xml version="1.0" encoding="UTF-8"?>
<svg width="137px" height="130px" viewBox="0 0 137 130" version="1.1" xmlns="http://www.w3.org/2000/svg" xmlns:xlink="http://www.w3.org/1999/xlink">
    <!-- Generator: Sketch 42 (36781) - http://www.bohemiancoding.com/sketch -->
    <title>Group</title>
    <desc>Created with Sketch.</desc>
    <defs></defs>
    <g id="Page-1" stroke="none" stroke-width="1" fill="none" fill-rule="evenodd">
        <g id="Desktop" transform="translate(-572.000000, -292.000000)">
            <g id="Group" transform="translate(572.000000, 292.000000)">
                <polygon id="HACKITAL" fill="#FAFAFA" points="79.238936 129.860232 79.238936 66.1937103 96.0956421 66.1937103 96.0956421 89.4977078 119.564647 89.4977078 119.564647 66.1937103 136.467919 66.1937103 136.467919 129.860232 119.564647 129.860232 119.564647 104.924954 96.0956421 104.924954 96.0956421 129.860232"></polygon>
                <polygon id="Line" fill="#ED1B24" fill-rule="nonzero" points="79.4717635 8.55515643 79.4717635 40.372881 79.4717635 48.3273122 95.3661162 48.3273122 95.3661162 40.372881 95.3661162 8.55515643 95.3661162 0.60072527 79.4717635 0.60072527"></polygon>
                <polygon id="Line" fill="#ED1B24" fill-rule="nonzero" points="119.207645 8.30754387 119.207645 40.372881 119.207645 48.3273122 135.101998 48.3273122 135.101998 40.372881 135.101998 8.30754387 135.101998 0.35311271 119.207645 0.35311271"></polygon>
                <polygon id="Line" fill="#ED1B24" fill-rule="nonzero" points="39.7358817 8.55515643 39.7358817 121.9058 39.7358817 129.860232 55.6302344 129.860232 55.6302344 121.9058 55.6302344 8.55515643 55.6302344 0.60072527 39.7358817 0.60072527"></polygon>
                <polygon id="Line" fill="#ED1B24" fill-rule="nonzero" points="0 8.55515643 0 121.9058 0 129.860232 15.8943527 129.860232 15.8943527 121.9058 15.8943527 8.55515643 15.8943527 0.60072527 0 0.60072527"></polygon>
            </g>
        </g>
    </g>
</svg>